<svg id="Layer_1" data-name="Layer 1" xmlns="http://www.w3.org/2000/svg" viewBox="0 0 400 400">
    <path
        d="M200.12,0C89.69-.14.28,89.07,0,199.67S89.16,399.84,199.88,400c110.4.16,199.82-89.07,200.12-199.69S310.86.14,200.12,0Zm78,266.32c-4.19,4.2-8.36,8.41-12.58,12.56-5.37,5.28-10.43,5.27-15.81-.1-15.64-15.6-31.31-31.18-46.81-46.92-2.4-2.44-3.57-2.32-5.91,0-15.32,15.54-30.8,30.93-46.24,46.35-6.15,6.14-10.82,6.13-17,0-4.3-4.27-8.61-8.54-12.86-12.86-5.09-5.19-5.08-10.32.09-15.51q23.53-23.61,47.2-47.1c2.27-2.24,2.24-3.39,0-5.61-15.53-15.33-30.92-30.81-46.35-46.24-6.33-6.33-6.35-10.93-.06-17.23,4.18-4.2,8.35-8.41,12.57-12.58,5.37-5.29,10.43-5.31,15.81,0,15.65,15.59,31.31,31.18,46.82,46.92,2.36,2.39,3.54,2.44,5.92,0,15.31-15.55,30.8-30.93,46.24-46.36,6.14-6.14,10.82-6.15,17-.06,4.39,4.37,8.75,8.78,13.15,13.14,2.1,2.08,3.49,4.44,3.32,7.57.22,3.53-1.88,5.94-4.23,8.27-15.54,15.51-31,31.1-46.64,46.52-2.28,2.25-2.22,3.4,0,5.61,15.53,15.33,30.92,30.81,46.34,46.25C284.43,255.37,284.42,260,278.15,266.32Z"
        fill="#f64850" />
</svg>