<svg id="Layer_1" data-name="Layer 1" xmlns="http://www.w3.org/2000/svg" viewBox="0 0 400 400">
    <path
        d="M333.24,120.92c-2-2.44-1.75-3.68.38-5.71,6.46-6.16,12.76-12.48,19-18.84s6.39-14.89.66-20.7-14.62-5.73-21,.61C326.05,82.46,319.8,88.62,313.77,95c-2.15,2.28-3.41,2.59-6,.44-26.23-21.42-56.34-33.67-90-37.25-2.38-.25-3.28-.76-3.23-3.33q.26-11.6,0-23.19c-.06-2.6.78-3.19,3.24-3.15,7.88.15,15.76.07,23.64,0,9.48,0,16-5.79,16-14.2S251,0,241.55,0Q221,0,200.5,0,179.74,0,159,0c-9.43,0-15.87,5.9-15.82,14.37s6.55,14.16,16,14.18c8,0,16.06.08,24.09,0,2.11,0,2.8.52,2.76,2.71-.13,7.88-.16,15.76,0,23.64,0,2.59-.89,3.08-3.25,3.33-5.31.55-10.6,1.42-15.85,2.4C73.21,78.05,11.07,173.51,33,266.42c21.37,90.71,108,147.51,199.12,130.61C310.6,382.48,369.22,314,371.37,233.64,372.49,191.52,359.67,153.83,333.24,120.92ZM199.61,371.3c-79-.26-142.44-64.62-142.12-144,.31-78.5,64.85-141.87,144.16-141.56C279.49,86,343.32,150.5,343.1,228.63A142.85,142.85,0,0,1,199.61,371.3Z"
        fill="#8970ff" />
    <path
        d="M200.16,114.25c-62.9-.07-114.15,51.3-114.11,114.37S137.3,342.73,200.42,342.74c62.76,0,114.11-51.25,114.11-113.93A114.27,114.27,0,0,0,200.16,114.25Zm53.18,167.11c-6.07,6.16-14.71,5.7-21.63-1.22-13.27-13.23-26.43-26.57-39.8-39.7a18.26,18.26,0,0,1-6-14.24c.22-11.15.06-22.3.06-33.46s0-22.6,0-33.91c0-9.51,5.74-16,14.17-16s14.36,6.42,14.38,15.83c0,20.07.06,40.15-.07,60.23a8.29,8.29,0,0,0,2.79,6.53C229,236.89,240.52,248.47,252.08,260,258.81,266.79,259.28,275.33,253.34,281.36Z"
        fill="#8970ff" />
</svg>