<svg id="Layer_1" data-name="Layer 1" xmlns="http://www.w3.org/2000/svg" viewBox="0 0 400 400">
    <path
        d="M200,0C89.68,0,.09,89.5,0,199.84S89.36,399.78,199.72,400,400.1,310.35,400,199.84,310.35,0,200,0ZM303.44,166.21c-7.86,8.36-16.14,16.31-24.26,24.43q-39.84,39.87-79.68,79.74c-6,6-12.8,10-21.56,9.76a25.68,25.68,0,0,1-19-7.7c-20.76-20.61-41.54-41.19-62-62-11.09-11.29-10.9-28.14-.19-39,10.9-11,27.8-11.11,39.36.13q19.51,19,38.46,38.49c2.95,3,4.47,2.86,7.36-.05q40.47-40.81,81.24-81.33c11.05-11,27.06-11.91,38.14-2.48A27.27,27.27,0,0,1,303.44,166.21Z"
        fill="#00a85c" />
</svg>