<svg id="Layer_1" data-name="Layer 1" xmlns="http://www.w3.org/2000/svg" viewBox="0 0 100 100">
    <path
        d="M2.91,99.85v-1c0-9.82,0-19.64,0-29.47A2.37,2.37,0,0,1,3.52,68c1.9-2,3.89-3.83,5.78-5.8a17.05,17.05,0,0,1,12.51-5.28c7.56-.14,15.13-.07,22.7,0a5.57,5.57,0,0,1,5.47,5,5.07,5.07,0,0,1-4.29,5.47c-1.31.23-2.62.44-3.93.65L31.42,69.63a2.5,2.5,0,1,0,.89,4.9c5-.86,10.08-1.59,15.07-2.62,3.77-.78,6.11-3.32,7.26-7a3.18,3.18,0,0,1,.72-1.23Q60,59,64.72,54.37c2.22-2.2,5.24-2.28,7.31-.24a5,5,0,0,1-.14,7.38C65.7,67.7,59.49,73.85,53.32,80.05c-3,3-6.59,4-10.64,4.24-5.59.33-11.17.79-16.76,1.2-2.93.21-5.86.4-8.79.66a2.3,2.3,0,0,0-1.31.67C11.9,90.92,8,95.06,4.14,99.18c-.28.29-.59.55-.89.82Z"
        fill="#027D14" />
    <path
        d="M58.41,27.23c0-1.24,0-2.39,0-3.54,0-1.47-.65-2.11-2.12-2.12-3.57,0-7.14,0-10.9,0A13.09,13.09,0,0,1,51,17.23,26,26,0,0,1,56.94,16c6.31-.54,12.64-.91,19-1.36,2.34-.17,4.68-.35,7-.59a2.15,2.15,0,0,0,1.23-.61C88.07,9.31,92,5.15,95.89,1c.27-.29.58-.54,1.09-1,.06.62.11,1,.11,1.27,0,9.86,0,19.71,0,29.57a2.31,2.31,0,0,1-.61,1.43c-1.84,1.92-3.8,3.73-5.62,5.66a17.28,17.28,0,0,1-12.78,5.42c-7.49.12-15,0-22.49,0a5.59,5.59,0,0,1-5.37-4.07,4.8,4.8,0,0,1,2.19-5.6,11,11,0,0,1,3.28-1c4.27-.75,8.55-1.43,12.82-2.15a2.5,2.5,0,0,0,2.31-2.92,2.46,2.46,0,0,0-3.13-2Z"
        fill="#027D14" />
    <path
        d="M53.36,48.11v2.56a1,1,0,0,1-1.09,1.11H11.5c-1.78,0-1.86-.08-1.86-1.81V28.27c0-1.52.14-1.66,1.69-1.66H51.68c.24,0,.55-.09.72,0a8.22,8.22,0,0,1,1,.91c-.27.24-.5.61-.81.7a10,10,0,0,0-7.42,8.21A10.28,10.28,0,0,0,52.35,47.8ZM31.59,33.32a5.87,5.87,0,1,0,5.79,6A6,6,0,0,0,31.59,33.32Z"
        fill="#027D14" />
</svg>