<svg id="Layer_1" data-name="Layer 1" xmlns="http://www.w3.org/2000/svg" viewBox="0 0 100 100">
    <path
        d="M87.3,3.48h2.54a7,7,0,0,1,5.6,3.32,6.47,6.47,0,0,1,1,3.88q0,35.32,0,70.67a7.31,7.31,0,0,1-5.09,7.15Q80.12,92.37,68.79,96a11,11,0,0,1-6.26.08,7,7,0,0,1-4.31-3.77,6.86,6.86,0,0,1-.87-3.47c.06-1.39,0-2.78.06-4.17,0-.42,0-.84,0-1.27q0-32.27,0-64.54a7.87,7.87,0,0,1,4-7,8.21,8.21,0,0,1,1.9-.82q10.53-3.51,21.06-7C85.28,3.74,86.31,3.72,87.3,3.48Z"
        fill="#2a8dbb" />
    <path
        d="M57.73,84.75l-11.42,0a11.55,11.55,0,0,1-11.68-9.83c-.35-2,0-4.17-.17-6.24a4.63,4.63,0,0,1,1.68-4.06c4.67-4.52,9.22-9.15,13.81-13.75,5.2-5.2,5.19-12.15,0-17.36q-7.49-7.5-15-15c-.21-.22-.45-.39-.44-.75,0-1.89-.17-3.81.39-5.67a11.53,11.53,0,0,1,8.37-8.24c.31-.09.67,0,.89-.35H87.3L76.15,7.22c-4.24,1.42-8.46,2.91-12.73,4.22a8.2,8.2,0,0,0-5.72,7.88C57.77,41.13,57.73,62.94,57.73,84.75Z"
        fill="#00aac7" />
    <path
        d="M3.53,41.2A10.7,10.7,0,0,1,4.23,40a3.82,3.82,0,0,1,3.33-1.67c4.78,0,9.55,0,14.32,0,.77,0,1-.15,1-1,0-3.56,0-7.12,0-10.69a3.59,3.59,0,0,1,2.31-3.48,3.74,3.74,0,0,1,4.14.68,4.61,4.61,0,0,1,.4.37q7.5,7.5,15,15a3.85,3.85,0,0,1,0,5.91q-7.48,7.52-15,15a3.9,3.9,0,0,1-6.86-2.8c0-3.47,0-7,0-10.42,0-.68-.19-.86-.87-.86-4.38,0-8.76-.07-13.14.05-2.42.06-4.33-.53-5.35-2.9Z"
        fill="#00aac7" />
</svg>