<svg id="Layer_1" data-name="Layer 1" xmlns="http://www.w3.org/2000/svg" viewBox="0 0 100 100">
    <path
        d="M84.58,14.93A11,11,0,0,1,75,10.73c-1.88-2.36-2.06-5.14-2-8a.64.64,0,0,1,.43-.63c.36-.12.56.18.77.38l8.8,7.87,3.79,3.4c.24.22.58.44.42.84s-.54.32-.88.32Z"
        fill="#027D14" />
    <path
        d="M89.3,17.37a58.32,58.32,0,0,1-8-.2A12.78,12.78,0,0,1,71,7.68c-.55-2.24-.3-4.53-.31-6.8,0-.73-.19-.88-.9-.88C53.12,0,36.49,0,19.86,0A10,10,0,0,0,9.79,10.09c.1,13.3,0,26.6,0,39.89V90a10.24,10.24,0,0,0,.33,2.81,10.09,10.09,0,0,0,9.66,7.2Q50,100,80.2,100a11.28,11.28,0,0,0,1.92-.21,9.74,9.74,0,0,0,8.07-9.29q0-36.12,0-72.23C90.21,17.52,90,17.38,89.3,17.37Zm-14.23,25c-3.26,3.34-6.58,6.6-9.88,9.89l-14.5,14.5a9.92,9.92,0,0,1-7.36,3A9.15,9.15,0,0,1,37,67.22c-4.08-4-8.13-8-12.12-12.11a7.16,7.16,0,0,1,9.92-10.3c2.07,1.86,4,3.9,6,5.87s3.67,2.09,5.8,0l18-18c2.68-2.67,6.08-3.19,9.08-1.42A7.16,7.16,0,0,1,75.07,42.39Z"
        fill="#027D14" />
</svg>