<svg id="Layer_1" data-name="Layer 1" xmlns="http://www.w3.org/2000/svg" viewBox="0 0 100 100">
    <path
        d="M100,33.79a10.29,10.29,0,0,1-3,5.06A8.44,8.44,0,0,1,91.44,41c-3.32,0-6.63,0-10,0a1.61,1.61,0,0,0-1.27.53C78.82,43,77.39,44.4,76,45.82a3,3,0,0,1-4.62,0c-1.41-1.39-2.83-2.78-4.2-4.22A1.9,1.9,0,0,0,65.61,41C60.41,41,55.2,41,50,41c-.49-.55-.34-1.23-.34-1.86q0-17.26,0-34.52c0-1.1,0-2.21,0-3.31A1.75,1.75,0,0,1,50,0H92.77c3.47.17,7,3.74,7.23,7.23Z"
        fill="#d5e7f7" />
    <path
        d="M50,0V41c-5.23,0-10.46,0-15.7,0a1.77,1.77,0,0,0-1.44.59c-1.35,1.4-2.74,2.77-4.13,4.14-1.57,1.55-3.17,1.54-4.75,0-1.39-1.38-2.78-2.74-4.13-4.14A1.72,1.72,0,0,0,18.49,41c-3.09,0-6.18,0-9.26,0a8.76,8.76,0,0,1-9.06-7.2c0-.08-.11-.15-.17-.22V7.42A8.28,8.28,0,0,1,5.08.58,11.83,11.83,0,0,1,7.62,0Z"
        fill="#5fc5e0" />
    <path
        d="M8.2,100C6.42,99.19,6,97.77,6.05,95.9a20.7,20.7,0,0,1,16.72-19A7.07,7.07,0,0,0,25,76.47,11.8,11.8,0,0,1,17.28,72a10.92,10.92,0,0,1-2.34-8.49,11.73,11.73,0,0,1,12.5-10.33A11.74,11.74,0,0,1,28,76.5c1.29.24,2.32.41,3.33.64A20.4,20.4,0,0,1,46.9,94.65c.05.42.1.84.16,1.25a3.55,3.55,0,0,1-2.14,4.1Z"
        fill="#00aac7" />
    <path d="M73.62,17.58H62.21a2.94,2.94,0,1,1,0-5.86H85.11a2.94,2.94,0,1,1,0,5.86Z" fill="#2a8dbb" />
    <path
        d="M73.69,23.44c3.86,0,7.73,0,11.6,0a2.89,2.89,0,0,1,2.5,4.5,2.63,2.63,0,0,1-2.35,1.33q-11.81,0-23.61,0a2.92,2.92,0,0,1,.05-5.83C65.82,23.42,69.75,23.44,73.69,23.44Z"
        fill="#2a8dbb" />
    <path d="M26.31,17.58H15c-2,0-3.29-1.2-3.27-3A2.93,2.93,0,0,1,15,11.72H37.79a2.94,2.94,0,1,1,0,5.86Z"
        fill="#00aac7" />
    <path
        d="M26.39,23.44c3.81,0,7.62,0,11.42,0a2.94,2.94,0,1,1,0,5.86H15a3,3,0,0,1-3.25-2.89c0-1.78,1.28-3,3.26-3C18.78,23.43,22.59,23.44,26.39,23.44Z"
        fill="#00aac7" />
    <path
        d="M54.61,100c-1.78-.81-2.25-2.23-2.16-4.1a20.72,20.72,0,0,1,16.72-19,7.13,7.13,0,0,0,2.23-.45A11.76,11.76,0,0,1,63.69,72a10.88,10.88,0,0,1-2.34-8.49,11.73,11.73,0,0,1,12.5-10.33,11.74,11.74,0,0,1,.53,23.36c1.28.24,2.31.41,3.33.64a20.41,20.41,0,0,1,15.6,17.51c0,.42.1.84.15,1.25a3.54,3.54,0,0,1-2.13,4.1Z"
        fill="#2a8dbb" />
</svg>