<svg width="28" height="28" viewBox="0 0 28 28" fill="none" xmlns="http://www.w3.org/2000/svg">
<path d="M12.8333 24.4998H5.83333C5.19167 24.4998 4.64217 24.2716 4.18483 23.815C3.72828 23.3577 3.5 22.8082 3.5 22.1665V5.83317C3.5 5.1915 3.72828 4.642 4.18483 4.18467C4.64217 3.72812 5.19167 3.49984 5.83333 3.49984H10.7042C10.9181 2.81928 11.3361 2.26006 11.9583 1.82217C12.5806 1.38506 13.2611 1.1665 14 1.1665C14.7778 1.1665 15.4731 1.38506 16.086 1.82217C16.6981 2.26006 17.1111 2.81928 17.325 3.49984H22.1667C22.8083 3.49984 23.3578 3.72812 23.8152 4.18467C24.2717 4.642 24.5 5.1915 24.5 5.83317V11.6665H22.1667V5.83317H19.8333V9.33317H8.16667V5.83317H5.83333V22.1665H12.8333V24.4998ZM18.0833 23.2457L13.125 18.2873L14.7583 16.654L18.0833 19.979L24.675 13.3873L26.3083 15.0207L18.0833 23.2457ZM14 5.83317C14.3306 5.83317 14.6078 5.72117 14.8318 5.49717C15.0551 5.27395 15.1667 4.99706 15.1667 4.6665C15.1667 4.33595 15.0551 4.05867 14.8318 3.83467C14.6078 3.61145 14.3306 3.49984 14 3.49984C13.6694 3.49984 13.3926 3.61145 13.1693 3.83467C12.9453 4.05867 12.8333 4.33595 12.8333 4.6665C12.8333 4.99706 12.9453 5.27395 13.1693 5.49717C13.3926 5.72117 13.6694 5.83317 14 5.83317Z" fill="#2E81E7"/>
</svg>
