<svg id="Layer_1" data-name="Layer 1" xmlns="http://www.w3.org/2000/svg" viewBox="0 0 100 100">
    <path
        d="M96.87,45.85c-5.4,0-10.8-.07-16.2,0a12.49,12.49,0,0,0,.68,25c4.88,0,9.76,0,14.64,0a3.78,3.78,0,0,0,4-2.37V48.19C99.36,46.87,98.49,45.85,96.87,45.85ZM81.21,62.49a4.15,4.15,0,1,1,4.19-4.08A4.1,4.1,0,0,1,81.21,62.49Z"
        fill="#027D14" />
    <path
        d="M90.88,77.08c-3.12,0-6.25,0-9.37,0a20.32,20.32,0,0,1-4-.39A18.74,18.74,0,0,1,81.46,39.6c3.16,0,6.31,0,9.47,0,.49,0,.75,0,.74-.66,0-2.7,0-5.4,0-8.1a8.18,8.18,0,0,0-6.36-7.67A25.21,25.21,0,0,0,79.91,23c-.61,0-.78-.17-.77-.77,0-2.38,0-4.75,0-7.13a9.44,9.44,0,0,0-.36-2.89c-1.15-3.71-4.33-5.92-8.55-5.92H13.54a24.84,24.84,0,0,0-2.73.15,12.27,12.27,0,0,0-10.74,12C0,39.21,0,60,0,80.79A13.79,13.79,0,0,0,.33,84,12.44,12.44,0,0,0,12.8,93.73q17.42,0,34.85,0,17.66,0,35.33,0a8.24,8.24,0,0,0,8.67-8.62c0-2.41,0-4.82,0-7.22C91.68,77.27,91.54,77.07,90.88,77.08ZM44.64,23H13.11a5.39,5.39,0,0,1-2.38-.43,4.16,4.16,0,0,1,1.68-7.92h28.9c9.5,0,19,0,28.5,0,.85,0,1.1.17,1.07,1.05q-.1,3.08,0,6.15c0,.91-.17,1.19-1.15,1.19C61.37,22.93,53,23,44.64,23Z"
        fill="#027D14" />
</svg>