<svg id="Layer_1" data-name="Layer 1" xmlns="http://www.w3.org/2000/svg" viewBox="0 0 100 100">
    <path
        d="M99.27,47.75q-9-14.78-18-29.57c-1.51-2.48-1.39-2.66-4.16-1.47a1.39,1.39,0,0,0-.19.06c-.3.18-.46.08-.68-.2-.87-1.1-1.5-1.25-2.85-.73C66.6,18.49,59.77,21,53,23.84a7.23,7.23,0,0,1-6,0c-6.74-2.78-13.56-5.34-20.35-8-1.2-.47-2.07-.41-2.61.41s-.9.58-1.47.31l-.71-.28c-1.33-.52-1.71-.4-2.45.81q-9.16,15-18.32,30.05c-.86,1.41-.65,2,.88,2.63q12.8,5.09,25.59,10.14c.62.24,1,.43.71,1.2A8.45,8.45,0,0,0,28,62.73Q26.91,69.86,25.8,77c-.28,1.8-.6,3.6-.86,5.41-.21,1.45.25,2,1.69,2,.55,0,1.1,0,1.64,0a3.88,3.88,0,0,0,2.67-.82C37,79.36,43.16,75.18,49.26,71a1.08,1.08,0,0,1,1.49,0c5.7,4,11.46,7.81,17.11,11.83a7.77,7.77,0,0,0,5.43,1.63c1.54-.15,2-.58,1.77-2.12C74,75.23,72.88,68.17,71.74,61.11c-.11-.7,0-.91.64-1.15,8.56-3.38,17.11-6.79,25.68-10.17a2.7,2.7,0,0,0,1.36-1v-1S99.3,47.8,99.27,47.75Zm-12.5-4.7Q69.37,49.91,52,56.83c-.73.29-1,.32-1-.63.06-2.44,0-4.89,0-7.33v-7a7.72,7.72,0,0,0-.05-1,1,1,0,0,0-1.95,0A13.86,13.86,0,0,0,49,42.31c0,4.67,0,9.33,0,14,0,.68-.07.9-.82.6q-17.58-7-35.2-14c-.55-.22-.67-.37-.33-.93q6.63-10.82,13.2-21.68c.43-.7.8-.43,1.26-.25q10.73,4.19,21.44,8.38a3.71,3.71,0,0,0,2.94,0c7.14-2.82,14.29-5.59,21.43-8.4.65-.26,1-.19,1.35.44q6.45,10.67,13,21.27C87.71,42.55,87.56,42.74,86.77,43.05Z"
        fill="#027D14" />
    <path
        d="M28.65,27a7,7,0,0,1,.71.23l14,5.45.17.08c.67.24,1,.7.79,1.4s-.9.77-1.53.53c-1.59-.61-3.16-1.24-4.74-1.85l-9.37-3.66a3.49,3.49,0,0,1-.78-.37.89.89,0,0,1-.41-1.08A1.05,1.05,0,0,1,28.65,27Z"
        fill="#027D14" />
    <path
        d="M56.79,34.74c-.69,0-1-.24-1.16-.73a1,1,0,0,1,.65-1.22L60.83,31l9.64-3.78A5,5,0,0,1,71,27c.61-.15,1.17-.1,1.43.59s-.1,1.1-.71,1.34l-3.92,1.54-10.18,4A7.65,7.65,0,0,1,56.79,34.74Z"
        fill="#027D14" />
    <path
        d="M22.39,39.63c0-.86.67-1.27,1.64-.9,2.08.79,4.16,1.6,6.24,2.41,2.62,1,5.23,2,7.85,3.06a3.6,3.6,0,0,1,.69.32.92.92,0,0,1,.47,1.14,1,1,0,0,1-1.2.71,3,3,0,0,1-.64-.22l-14-5.45C22.93,40.5,22.42,40.3,22.39,39.63Z"
        fill="#027D14" />
    <path
        d="M77.62,39.62a1,1,0,0,1-.79,1L62.31,46.27a1.06,1.06,0,0,1-1.57-.61c-.24-.69.2-1.07.79-1.3,4.85-1.9,9.68-3.8,14.53-5.67C77,38.34,77.64,38.8,77.62,39.62Z"
        fill="#027D14" />
    <path
        d="M40.9,40.31a1.6,1.6,0,0,1-.89-.25L26.26,34.7l-.45-.18a1,1,0,0,1-.69-1.37,1,1,0,0,1,1.41-.55l4.92,1.91c3.12,1.22,6.25,2.43,9.37,3.66a3.39,3.39,0,0,1,.7.31,1,1,0,0,1-.62,1.83Z"
        fill="#027D14" />
    <path
        d="M59.28,40.31a1,1,0,0,1-1.18-.69,1,1,0,0,1,.51-1.22c.54-.26,1.12-.46,1.69-.68L72.89,32.8l.54-.2a1,1,0,0,1,1.44.51c.27.67,0,1.16-.72,1.43l-8.3,3.25-5.8,2.26C59.75,40.17,59.45,40.25,59.28,40.31Z"
        fill="#027D14" />
</svg>